<svg xmlns="http://www.w3.org/2000/svg" data-name="Layer 1" viewBox="0 0 95 118.75" x="0px" y="0px"><path d="M41.5,51.024l4.31,3.407a2.713,2.713,0,0,0,3.376,0l4.31-3.407L83.443,74.739H11.557L41.5,51.024Zm6-2.2L11.428,20.261H83.572L47.5,48.821ZM6.45,23.268V71.831L37.115,47.549,6.45,23.268Zm82.1,48.563V23.268L57.885,47.549,88.55,71.831Zm2.725-57.019H3.725A2.724,2.724,0,0,0,1,17.537V77.463a2.722,2.722,0,0,0,2.725,2.725h87.55A2.722,2.722,0,0,0,94,77.463V17.537A2.724,2.724,0,0,0,91.275,14.812Z" style="" fill-rule="evenodd"/></svg>