<svg width="86" height="24" viewBox="0 0 86 24" xmlns="http://www.w3.org/2000/svg"><path d="M62.615 6.6c-.419-.378-.954-.662-1.652-.851-.698-.166-1.56-.26-2.606-.26h-5.352c-1.024 0-1.885.094-2.583.26-.698.165-1.233.449-1.652.85-.418.379-.698.899-.884 1.513-.163.638-.256 1.395-.256 2.293v4.68c0 .897.093 1.677.256 2.292.163.614.466 1.134.884 1.512.419.378.954.662 1.652.851.698.165 1.56.26 2.583.26h5.352c1.047 0 1.908-.095 2.606-.26s1.233-.449 1.652-.85c.419-.379.698-.899.884-1.513.163-.615.256-1.395.256-2.293v-4.68c0-.897-.093-1.654-.256-2.292-.186-.614-.465-1.134-.884-1.512zm-2.001 8.366c0 .473-.047.85-.117 1.134a1.46 1.46 0 01-.372.71c-.186.165-.419.283-.745.354-.302.07-.697.094-1.14.094h-5.072c-.489 0-.908-.023-1.21-.094a1.699 1.699 0 01-.745-.355c-.186-.165-.302-.401-.372-.709-.07-.307-.093-.685-.093-1.134v-4.42c0-.449.023-.827.093-1.11.07-.284.186-.52.372-.71.187-.188.42-.307.745-.377.302-.071.721-.095 1.21-.095h5.072c.466 0 .838.024 1.14.095.303.07.559.189.745.378.186.189.303.425.372.709.07.283.117.661.117 1.11v4.42zM10.4 16.455L3.769 5.489H0l8.028 13.164c.255.425.558.756.884.992.325.237.79.355 1.42.355.604 0 1.093-.118 1.418-.355.326-.236.629-.567.885-.992l8.074-13.164h-3.723L10.4 16.455zM24.71 5.489h-3.118V20h3.118V5.489zm15.613 6.76c-.35-.308-.791-.52-1.326-.639-.536-.142-1.21-.213-1.978-.213H30.48c-.511 0-.86-.094-1.07-.283-.21-.19-.302-.52-.302-.97v-.472c0-.59.116-.969.349-1.158.232-.19.581-.284 1.047-.284h10.773V5.49H30.202c-.698 0-1.303.07-1.815.213a2.673 2.673 0 00-1.233.709c-.326.33-.535.732-.698 1.276a7.34 7.34 0 00-.233 1.89v.733c0 .615.047 1.158.163 1.63.117.474.326.852.628 1.159.303.307.698.544 1.21.685.512.142 1.164.213 1.932.213h6.654c.535 0 .954.095 1.187.284.256.189.372.52.372.969v.78c0 .496-.116.827-.372.992-.256.166-.651.236-1.21.236h-10.61V20H36.95c.768 0 1.443-.07 1.978-.213.535-.142.977-.354 1.326-.661.349-.308.582-.686.745-1.159.14-.472.232-1.063.232-1.725v-1.158c0-.662-.07-1.205-.232-1.678-.093-.472-.35-.85-.675-1.158zm5.538-6.76h-3.118V20h3.118V5.489zm21.29 0c.35 0 .628.047.86.142.234.118.42.236.56.378L81.485 18.51c.047.567-.14.993-.419 1.182-.279.189-.628.283-1.093.283a2.77 2.77 0 01-.884-.141 1.955 1.955 0 01-.768-.497l-9.959-9.524v10.162h-2.815V6.766c0-.426.14-.757.442-.97.302-.213.674-.307 1.163-.307zM80.23 4c.698 0 1.28.567 1.28 1.3v2.93h3.21c.722 0 1.304.591 1.28 1.348 0 .709-.558 1.3-1.28 1.3l-3.211-.001v2.955c0 .732-.581 1.3-1.28 1.3-.72 0-1.279-.591-1.279-1.3v-2.979h-3.28c-.722 0-1.28-.59-1.28-1.3 0-.732.581-1.299 1.28-1.299h3.28V5.3c0-.665.49-1.226 1.146-1.293z" fill="#07E3D0"/></svg>